<?xml version="1.0" encoding="UTF-8"?>
<svg width="512" height="512" viewBox="0 0 512 512" fill="none" xmlns="http://www.w3.org/2000/svg">
  <!-- Crown -->
  <path d="M256 50L356 150L456 50L406 250H106L56 50L156 150L256 50Z" fill="#FFD700"/>
  <path d="M256 50L356 150L456 50L406 250H106L56 50L156 150L256 50Z" fill="url(#crown-gradient)" stroke="#B8860B" stroke-width="8"/>
  
  <!-- Keyboard -->
  <rect x="106" y="200" width="300" height="200" rx="20" fill="#2A2A2A"/>
  <rect x="126" y="220" width="40" height="40" rx="5" fill="#FFD700"/>
  <rect x="176" y="220" width="40" height="40" rx="5" fill="#FFD700"/>
  <rect x="226" y="220" width="40" height="40" rx="5" fill="#FFD700"/>
  <rect x="276" y="220" width="40" height="40" rx="5" fill="#FFD700"/>
  <rect x="326" y="220" width="40" height="40" rx="5" fill="#FFD700"/>
  
  <rect x="146" y="270" width="40" height="40" rx="5" fill="#FFD700"/>
  <rect x="196" y="270" width="40" height="40" rx="5" fill="#FFD700"/>
  <rect x="246" y="270" width="40" height="40" rx="5" fill="#FFD700"/>
  <rect x="296" y="270" width="40" height="40" rx="5" fill="#FFD700"/>
  
  <rect x="166" y="320" width="180" height="40" rx="5" fill="#FFD700"/>
  
  <!-- Gradients -->
  <defs>
    <linearGradient id="crown-gradient" x1="256" y1="50" x2="256" y2="250">
      <stop offset="0%" stop-color="#FFD700"/>
      <stop offset="100%" stop-color="#DAA520"/>
    </linearGradient>
  </defs>
</svg>
